<svg xmlns="http://www.w3.org/2000/svg" width="120" height="50" viewBox="0 0 120 50" fill="none"><path d="M7.32 41.132C6.248 41.132 5.248 40.86 4.32 40.316C3.408 39.772 2.68 39.036 2.136 38.108C1.608 37.196 1.344 36.212 1.344 35.156C1.344 34.26 1.536 33.404 1.92 32.588C2.32 31.772 2.872 31.076 3.576 30.5L9.744 25.964L7.176 24.74C6.92 24.612 6.688 24.548 6.48 24.548C6.08 24.548 5.696 24.716 5.328 25.052L3.528 26.996L1.128 24.908L2.952 22.724C3.4 22.18 3.928 21.78 4.536 21.524C5.16 21.268 5.8 21.14 6.456 21.14C7.176 21.14 7.864 21.316 8.52 21.668L13.704 24.092C13.832 24.124 13.952 24.14 14.064 24.14H16.272V27.524H13.344L12.912 27.836V28.748C12.912 29.068 13.016 29.34 13.224 29.564C13.432 29.772 13.696 29.876 14.016 29.876H17.136C17.296 29.876 17.376 29.956 17.376 30.116V33.26C17.376 33.42 17.296 33.5 17.136 33.5H14.016C12.832 33.5 11.896 33.204 11.208 32.612C10.536 32.02 10.192 31.18 10.176 30.092V29.852L5.952 32.972C5.296 33.5 4.968 34.204 4.968 35.084C4.968 35.804 5.224 36.42 5.736 36.932C6.264 37.444 6.88 37.7 7.584 37.7H14.544V41.132H7.32ZM7.848 33.404H10.392V36.02H7.848V33.404ZM17.1328 33.5C16.9728 33.5 16.8928 33.42 16.8928 33.26V30.116C16.8928 29.956 16.9728 29.876 17.1328 29.876H20.3728C20.5328 29.876 20.6128 29.956 20.6128 30.116V33.26C20.6128 33.42 20.5328 33.5 20.3728 33.5H17.1328ZM20.3672 33.5C20.2072 33.5 20.1272 33.42 20.1272 33.26V30.116C20.1272 29.956 20.2072 29.876 20.3672 29.876H23.6072C23.7672 29.876 23.8472 29.956 23.8472 30.116V33.26C23.8472 33.42 23.7672 33.5 23.6072 33.5H20.3672ZM23.6016 33.5C23.4416 33.5 23.3616 33.42 23.3616 33.26V30.116C23.3616 29.956 23.4416 29.876 23.6016 29.876H26.8416C27.0016 29.876 27.0816 29.956 27.0816 30.116V33.26C27.0816 33.42 27.0016 33.5 26.8416 33.5H23.6016ZM26.8359 33.5C26.6759 33.5 26.5959 33.42 26.5959 33.26V30.116C26.5959 29.956 26.6759 29.876 26.8359 29.876H30.0759C30.2359 29.876 30.3159 29.956 30.3159 30.116V33.26C30.3159 33.42 30.2359 33.5 30.0759 33.5H26.8359ZM30.0703 33.5C29.9103 33.5 29.8303 33.42 29.8303 33.26V30.116C29.8303 29.956 29.9103 29.876 30.0703 29.876H33.3103C33.4703 29.876 33.5503 29.956 33.5503 30.116V33.26C33.5503 33.42 33.4703 33.5 33.3103 33.5H30.0703ZM33.3047 33.5C33.1447 33.5 33.0647 33.42 33.0647 33.26V30.116C33.0647 29.956 33.1447 29.876 33.3047 29.876H36.5447C36.7047 29.876 36.7847 29.956 36.7847 30.116V33.26C36.7847 33.42 36.7047 33.5 36.5447 33.5H33.3047ZM39.0111 18.692H42.0831V21.788H39.0111V18.692ZM36.5391 33.5C36.3791 33.5 36.2991 33.42 36.2991 33.26V30.116C36.2991 29.956 36.3791 29.876 36.5391 29.876H37.8351C38.1391 29.876 38.3951 29.764 38.6031 29.54C38.8271 29.316 38.9391 29.052 38.9391 28.748V23.828H42.3711V28.964C42.3711 29.78 42.1711 30.54 41.7711 31.244C41.3711 31.932 40.8271 32.484 40.1391 32.9C39.4511 33.3 38.6911 33.5 37.8591 33.5H36.5391ZM50.0891 29.876C50.2491 29.876 50.3291 29.956 50.3291 30.116V33.26C50.3291 33.42 50.2491 33.5 50.0891 33.5H49.0811C48.6651 33.5 48.2891 33.452 47.9531 33.356C47.8891 34.476 47.6731 35.42 47.3051 36.188C46.9371 36.972 46.3531 37.676 45.5531 38.3C44.7531 38.94 43.6331 39.612 42.1931 40.316L40.8971 37.412C42.0331 36.756 42.8411 36.228 43.3211 35.828C43.8011 35.428 44.1211 34.996 44.2811 34.532C44.4411 34.068 44.5211 33.396 44.5211 32.516V24.548H47.9771V28.748C47.9771 29.068 48.0811 29.34 48.2891 29.564C48.4971 29.772 48.7611 29.876 49.0811 29.876H50.0891ZM49.7739 18.692H52.8699V21.788H49.7739V18.692ZM54.1179 18.692H57.1899V21.788H54.1179V18.692ZM50.0859 33.5C49.9259 33.5 49.8459 33.42 49.8459 33.26V30.116C49.8459 29.956 49.9259 29.876 50.0859 29.876H52.6779C52.9819 29.876 53.2379 29.764 53.4459 29.54C53.6699 29.316 53.7819 29.052 53.7819 28.748V23.828H57.2139V28.964C57.2139 29.78 57.0139 30.54 56.6139 31.244C56.2139 31.932 55.6699 32.484 54.9819 32.9C54.2939 33.3 53.5339 33.5 52.7019 33.5H50.0859Z" fill="white"></path><path d="M115.962 0.160585C117.303 0.0303744 118.652 -0.00987197 120 0.00196534C119.914 1.95117 119.844 3.90985 119.49 5.83539C119.164 7.61809 118.586 9.35423 117.819 11.0043C116.847 13.1216 115.329 14.9698 113.546 16.5024C112.26 17.5756 110.759 18.3908 109.183 18.9953C106.442 20.0749 103.413 20.299 100.735 21.5506C100.232 21.8 99.7029 22.0059 99.2273 22.3042C99.0259 22.4218 98.8603 22.627 98.6049 22.6183C98.5943 20.441 98.4132 18.2661 98.4834 16.0889C98.5315 14.7323 98.7004 13.3726 99.1066 12.0705C99.5226 10.6847 100.055 9.31792 100.856 8.09552C101.608 6.93626 102.591 5.94114 103.575 4.96653C104.466 4.08978 105.506 3.35902 106.636 2.79715C109.513 1.30328 112.719 0.455728 115.962 0.160585ZM111.109 6.89522C110.815 6.96546 110.602 7.188 110.377 7.36792C108.644 8.8973 107.023 10.5387 105.365 12.1415C105.025 12.4588 104.846 12.9938 105.105 13.4089C105.376 13.8958 106.152 13.9913 106.543 13.5912C108.313 11.9119 110.137 10.2838 111.871 8.56981C112.126 8.33306 112.318 7.99609 112.259 7.64413C112.184 7.14065 111.621 6.76817 111.109 6.89522Z" fill="white"></path><path d="M87.4104 2.74814C90.0086 1.96372 92.7421 1.6015 95.4626 1.67963C97.0631 1.71435 98.6537 1.93295 100.221 2.24072C100.804 2.37487 101.418 2.47194 101.931 2.79234C101.292 3.55387 100.664 4.32566 100.015 5.08088C99.2558 5.08798 98.5224 4.81809 97.7711 4.72655C95.7301 4.46376 93.6516 4.50401 91.6139 4.77469C89.7035 5.05957 87.8322 5.58831 86.0596 6.33248C83.9036 7.23448 81.9434 8.53737 80.2083 10.0604C79.1503 11.0177 78.1681 12.057 77.3304 13.2021C76.4143 14.4292 75.5455 15.7013 74.9109 17.0902C73.4238 20.325 72.8756 23.9314 73.135 27.4526C73.2835 29.4405 73.7052 31.4149 74.4484 33.2765C74.9003 34.4177 75.5121 35.4893 76.1141 36.5602C76.8344 37.8197 77.7709 38.9466 78.7473 40.027C79.7988 41.1665 80.9514 42.2303 82.2607 43.0905C83.2102 43.7218 84.1459 44.4012 85.2234 44.8156C85.2031 45.8825 85.19 46.9502 85.168 48.0171C84.5056 47.8427 83.8995 47.5223 83.2991 47.2075C81.5747 46.2794 79.9326 45.1959 78.4659 43.9143C77.3793 43.0731 76.4991 42.0227 75.6092 40.996C71.5386 36.2256 69.5662 29.8808 70.0801 23.7286C70.4496 19.0552 72.3242 14.5215 75.3155 10.8409C78.3819 7.04666 82.6531 4.17414 87.4104 2.74814Z" fill="white"></path><path d="M105.923 25.037C109.036 24.4199 112.265 24.3299 115.402 24.8318C116.504 25.0054 117.582 25.3077 118.695 25.4205C118.414 28.3972 117.969 31.3881 116.936 34.2172C116.477 35.4909 115.826 36.6865 115.154 37.8639C114.112 39.6821 112.885 41.4119 111.39 42.9098C109.507 44.7982 107.295 46.3844 104.865 47.5516C102.461 48.7132 99.8516 49.4582 97.1923 49.8141C95.8365 50.0114 94.4612 50.0129 93.094 49.99C92.0956 49.9514 91.08 49.9356 90.1117 49.6704C90.0684 48.875 90.3034 48.0992 90.5424 47.3472C90.9021 46.2282 91.4519 45.162 92.2024 44.2387C92.4577 43.9294 92.6755 43.5892 92.9708 43.3122C93.4391 42.8671 93.8584 42.37 94.387 41.988C95.6481 40.9992 97.0838 40.2235 98.6149 39.7019C100.181 39.1747 101.79 38.7699 103.342 38.2017C106.022 37.2571 108.458 35.6874 110.415 33.6838C110.968 33.1045 111.545 32.5182 111.882 31.7914C111.715 31.8821 111.548 31.976 111.401 32.0952C110.348 32.9854 109.091 33.6033 107.835 34.177C106.479 34.772 105.097 35.3244 103.653 35.6851C101.749 36.1728 99.7912 36.4608 97.915 37.0511C95.4205 37.8521 93.0981 39.2047 91.2806 41.0497C90.1329 42.2058 89.1989 43.5592 88.5365 45.0279C88.1702 45.7807 87.9981 46.5998 87.6971 47.3756C87.5682 47.2619 87.5731 47.0852 87.5495 46.9321C87.4671 46.1745 87.5201 45.4106 87.5747 44.653C87.6718 43.5435 87.8031 42.4331 88.0389 41.3425C88.4508 39.7105 88.9933 38.0999 89.7813 36.5989C90.3613 35.532 90.9894 34.484 91.744 33.522C92.6299 32.3967 93.5761 31.3068 94.6855 30.3804C95.7076 29.5423 96.751 28.72 97.8914 28.035C100.345 26.5624 103.101 25.5973 105.923 25.037Z" fill="white"></path><path d="M92.1522 6.9332C92.5772 6.89375 93.0658 6.9261 93.3978 7.21888C93.7461 7.55032 93.7951 8.05617 93.8155 8.50283C93.8065 10.531 93.8163 12.5599 93.8032 14.588C93.7869 15.9801 93.9574 17.3745 93.813 18.765C93.7681 19.1146 93.7241 19.4839 93.5291 19.7901C93.4378 19.9558 93.1914 19.9771 93.0429 19.8745C92.6579 19.6094 92.4116 19.2053 92.1685 18.8234C90.6651 16.392 89.1258 13.9819 87.633 11.5442C87.2373 10.9169 86.7683 10.3218 86.5048 9.6258C86.4347 9.3638 86.402 9.04025 86.597 8.81928C86.9478 8.38288 87.5074 8.19348 88.0098 7.97173C89.3379 7.46194 90.7352 7.11471 92.1522 6.9332Z" fill="#FFA600"></path><path d="M96.2448 7.04372C97.0076 6.77146 97.8771 6.91035 98.5925 7.25126C98.3641 7.86522 97.984 8.40974 97.6887 8.99292C96.8583 10.6486 96.3966 12.4573 96.1233 14.2716C95.8525 16.0716 96.1233 17.8946 95.934 19.6986C95.8998 19.6883 95.8329 19.6662 95.7986 19.6552C95.5931 19.1746 95.5653 18.6506 95.5474 18.1376C95.5327 17.4779 95.5621 16.8197 95.5874 16.1616C95.5963 13.4248 95.4919 10.6872 95.6192 7.95203C95.6151 7.5614 95.8582 7.17708 96.2448 7.04372Z" fill="#FFA600"></path><path d="M83.6237 10.2317C83.8904 10.122 84.2184 10.1023 84.4745 10.2515C84.7372 10.3943 84.8587 10.6752 85.0178 10.908C87.0123 14.0252 89.0084 17.1423 91.0077 20.2579C91.2802 20.6399 91.3071 21.2136 90.9604 21.5616C90.6774 21.8418 90.2214 21.8197 89.882 21.6555C88.7172 21.1426 87.6657 20.426 86.5383 19.846C85.2405 19.1476 83.9214 18.4855 82.6171 17.7981C81.6871 17.3168 80.7458 16.8488 79.8623 16.2877C79.4977 16.0391 79.1021 15.7637 78.9479 15.3391C78.8288 15.0179 78.983 14.6794 79.1526 14.404C79.5165 13.8287 80.0067 13.3418 80.4635 12.8351C81.1748 12.0468 82.002 11.3673 82.8316 10.7005C83.0714 10.5079 83.352 10.3754 83.6237 10.2317Z" fill="#FFA600"></path><path d="M77.6584 17.4802C78.0075 17.3334 78.3885 17.4747 78.6976 17.6459C80.1782 18.4548 81.6726 19.2416 83.1548 20.0473C84.5424 20.7788 85.903 21.5577 87.3175 22.2419C87.9212 22.5434 88.5403 22.8267 89.0934 23.2126C89.3748 23.3988 89.6032 23.7074 89.5682 24.0515C89.5469 24.4666 89.1831 24.8075 88.7687 24.8706C88.13 24.9621 87.4839 24.8809 86.8428 24.8888C83.7707 24.8943 80.6986 24.884 77.6266 24.899C77.1404 24.888 76.6493 24.9692 76.1672 24.8793C75.7373 24.7885 75.4249 24.4011 75.3817 23.986C75.2993 23.2094 75.4543 22.4361 75.6239 21.6808C75.8833 20.6179 76.2268 19.5691 76.7023 18.5763C76.9201 18.147 77.1543 17.6483 77.6584 17.4802Z" fill="#FFA600"></path><path d="M77.0815 26.617C80.8796 26.602 84.6793 26.6044 88.4774 26.6131C88.7955 26.617 89.1552 26.6612 89.3796 26.9043C89.5631 27.1742 89.5599 27.5577 89.3421 27.8102C89.0565 28.1511 88.6258 28.324 88.2612 28.5694C86.8769 29.469 85.5024 30.3821 84.1173 31.2794C82.9255 32.0748 81.7092 32.8348 80.5378 33.6579C79.9749 34.0359 79.426 34.4344 78.8443 34.784C78.6029 34.9481 78.2684 34.9529 78.0229 34.795C77.5677 34.5228 77.2961 34.0532 77.0489 33.6105C76.4771 32.5136 76.1075 31.3306 75.7951 30.1438C75.5952 29.3372 75.4052 28.5189 75.3962 27.6863C75.3856 27.3715 75.4941 27.0369 75.7812 26.8609C76.172 26.6415 76.6418 26.636 77.0815 26.617Z" fill="#FFA600"></path><path d="M90.3823 29.3049C90.7861 29.2007 91.3 29.4595 91.318 29.8912C91.3547 30.1887 91.1785 30.4476 90.9892 30.663C90.5528 31.1625 90.0715 31.6266 89.6824 32.164C88.622 33.6192 87.6839 35.1643 86.9913 36.8176C86.4203 38.1418 86.0524 39.5355 85.7391 40.9354C85.6315 41.2811 85.5866 41.6993 85.2636 41.9298C84.9658 42.1034 84.6208 41.9132 84.3442 41.7861C83.4184 41.3 82.6198 40.6237 81.8375 39.949C81.1408 39.2806 80.3985 38.6453 79.8365 37.8601C79.5909 37.5381 79.418 37.1214 79.5624 36.7237C79.8226 36.2123 80.3227 35.8785 80.7941 35.5637C83.6558 33.6721 86.5255 31.7931 89.3904 29.9062C89.7248 29.7129 90.0152 29.439 90.3823 29.3049Z" fill="#FFA600"></path></svg>