<svg width="74" height="159" viewBox="0 0 74 159" fill="none" xmlns="http://www.w3.org/2000/svg">
<path d="M0.745154 158.817C0.745154 158.744 0.86494 158.549 1.01213 158.38C1.30141 158.042 9.74853 138.475 11.7206 133.574L12.937 130.549L12.8191 128.887C12.6509 126.533 11.9991 123.123 11.3058 120.964C10.9783 119.948 9.99957 117.735 9.12918 116.047C8.25879 114.36 6.8742 111.659 6.05033 110.052C3.14478 104.365 1.33009 98.9608 0.316332 92.9705C-0.0150023 91.0143 -0.012457 84.2568 0.320789 82.723C0.802498 80.4989 1.34219 79.1492 2.08451 78.3166C2.71532 77.6072 2.94088 77.4878 3.78642 77.411C4.63005 77.3309 4.87791 77.4002 5.64125 77.914C8.31742 79.717 11.272 85.9106 13.2855 93.9377C14.2241 97.6728 14.9377 101.527 15.2417 104.488C15.4749 106.762 15.545 120.961 15.3321 123.031L15.2226 124.105L15.536 123.423C16.6849 120.919 20.7476 106.924 22.3048 100.113C22.9248 97.3978 22.9248 97.3908 22.589 96.3054C21.8658 93.9727 18.8309 88.9839 15.9305 85.3593C13.1969 81.9418 11.7066 79.6567 10.1487 76.485C7.5802 71.2574 6.51674 66.1911 7.21063 62.498C7.61907 60.3278 8.8622 58.8124 10.2353 58.8124C11.0312 58.8124 12.3444 59.6527 13.5213 60.9172C16.7027 64.3315 20.5366 73.1976 22.0831 80.7148C22.5297 82.8888 23.2306 88.834 23.4307 92.1702L23.5683 94.4369L24.0947 91.7028C25.2639 85.6274 26.1674 79.5062 26.874 72.8642C27.5565 66.4522 27.5565 66.4369 26.8103 64.4732C25.8565 61.96 25.1715 60.7298 23.065 57.7309C19.3056 52.3807 17.5508 49.2204 16.5262 45.9534C14.8906 40.7379 15.1302 35.7707 17.0767 34.59C18.2727 33.8616 19.2973 34.176 20.7393 35.7136C23.7831 38.9545 26.2541 46.0722 27.3838 54.8354C27.5972 56.4968 27.782 58.2643 27.7935 58.7705L27.8145 59.6914L27.9745 58.8131C28.1357 57.9271 28.6518 48.692 28.8621 42.9043L28.9761 39.7789L28.2262 38.87C27.8145 38.367 26.6829 37.3515 25.7144 36.6071C22.7802 34.3512 19.0813 30.2758 17.1061 27.1148C15.7132 24.8869 15.1805 23.2108 15.0824 20.7447C14.9543 17.5266 15.5475 16.0614 16.9793 16.0614C17.9949 16.0614 19.1922 16.8972 21.1362 18.9607C24.9453 22.9987 26.7976 26.1787 28.432 31.4825L29.1239 33.7257L29.1335 32.1646C29.1373 31.3059 29.0494 29.3726 28.9353 27.8693C28.7302 25.1542 28.7263 25.1352 28.0745 24.4563C26.6778 22.9993 24.1253 18.4735 23.0095 15.4784C22.0245 12.8319 21.632 10.5461 21.753 8.15683C21.9818 3.58913 23.7557 0.252274 25.9501 0.252274C26.8307 0.252274 27.5042 0.624446 28.4721 1.64824C29.4553 2.69236 29.7203 3.12487 30.3658 4.75138C31.3107 7.1324 31.5204 8.5976 31.6312 13.6219C31.7504 18.9873 31.493 21.4687 30.5092 24.4721C29.9561 26.159 29.9402 26.3089 30.1211 28.0275C30.2256 29.0163 30.3123 30.4745 30.3148 31.2722C30.3174 32.0699 30.362 32.6765 30.4161 32.6218C30.4703 32.5685 30.815 31.4329 31.1833 30.1017C32.868 23.9971 34.9064 20.0772 37.889 17.2116C41.6012 13.6454 44.3863 14.2894 43.6427 18.5428C42.6749 24.0809 37.2894 32.5367 31.4426 37.6995L30.5092 38.5239L30.3193 43.5444C30.2154 46.3059 30.1281 49.1779 30.1262 49.9305L30.1237 51.2959L31.2126 48.0893C33.2325 42.1415 35.4167 38.3099 38.632 35.0848C41.512 32.1963 43.8078 31.372 45.1771 32.7374C45.5957 33.1515 45.6919 33.4545 45.7531 34.5551C45.85 36.2725 45.4307 37.8793 44.2213 40.4153C42.4627 44.1046 40.2026 47.1531 35.2141 52.5649C32.0977 55.9475 29.7675 58.8353 29.6496 59.4685C29.6069 59.6991 29.3826 62.5139 29.1532 65.7237C28.4205 75.9286 27.1716 85.5169 25.4149 94.4262C24.8873 97.1031 24.4757 99.3152 24.5012 99.3419C24.5267 99.3654 25.3786 97.3057 26.3936 94.7634C27.4647 92.0858 29.3361 87.9595 30.8488 84.9491L33.4574 79.7564L32.9757 78.7015C32.2678 77.1563 32.0486 75.3615 32.062 71.2079C32.0798 65.18 32.7629 61.5822 34.5801 57.9347C36.9842 53.1104 40.6843 50.8094 41.7924 53.4559C42.738 55.7106 41.2718 64.075 38.8212 70.4C38.4491 71.3584 38.1719 72.1719 38.2044 72.2024C38.2369 72.2367 38.5689 71.8112 38.9423 71.2587C40.079 69.5756 41.8529 67.2048 43.3866 65.314L44.8419 63.5199L44.7075 61.1192C44.5565 58.4384 44.9496 53.7513 45.6186 50.2613C46.5566 45.3678 49.0467 40.4781 51.3896 38.9323C52.9513 37.9009 53.9122 37.8742 54.5519 38.8484C55.6734 40.555 53.7338 49.0997 50.8678 55.0786C50.2312 56.4098 49.4373 57.9474 49.1028 58.4955C48.5045 59.4812 48.5242 59.4698 50.2847 57.7404C51.4565 56.5896 52.367 55.4775 52.9239 54.5185C55.4287 50.2042 60.5542 44.8801 64.6544 42.3346C68.122 40.1784 71.8342 39.8449 73.1946 41.5635C73.8056 42.3346 73.661 43.4085 72.7416 44.9194C70.1329 49.1956 63.944 53.2641 55.8633 56.0103L53.2342 56.9046L50.8149 59.3745C48.6102 61.6215 47.1613 63.1833 46.0914 64.4636C45.8716 64.7278 46.2654 64.4979 46.9657 63.9537C50.323 61.3421 53.7109 59.5352 57.6703 58.2434C60.4707 57.3295 62.4447 56.9967 63.6827 57.2259C66.1321 57.6826 66.2347 59.0595 63.9873 61.3529C61.1748 64.2255 56.2386 67.4283 51.842 69.2339C50.0566 69.9662 44.4195 71.6156 41.7497 72.1834C40.8742 72.3707 40.0739 72.5778 39.972 72.647C39.4144 73.0154 32.6692 83.9189 32.6692 84.4511C32.6692 84.4975 33.5288 83.6846 34.5788 82.6487C40.2587 77.042 46.2641 73.594 51.6731 72.8312C54.3251 72.4584 56.2653 73.4028 56.5055 75.1817C56.6674 76.3903 55.8856 77.8054 54.1499 79.4351C51.5279 81.898 48.4522 83.3321 39.8184 86.1126C36.1431 87.2939 34.2647 88.0192 32.2869 89.0125L29.6515 90.3392L28.4052 93.1699C26.753 96.9202 22.8541 106.723 22.2322 108.686C21.8008 110.048 20.5787 114.094 20.1231 115.667C20.0371 115.962 19.9982 116.204 20.0352 116.204C20.0721 116.204 20.6035 115.261 21.2152 114.11C22.6311 111.441 26.0113 106.306 27.9305 103.905C33.7785 96.5906 42.7545 90.9997 48.7294 90.9534C50.4389 90.9419 51.2813 91.2912 51.8707 92.2534C52.3855 93.0937 52.3498 94.0292 51.7547 95.3064C49.7157 99.6702 44.2309 104.402 31.1126 113.121C24.0297 117.826 21.7435 119.552 19.2189 122.098L17.4195 123.912L16.221 127.134C14.6402 131.379 12.5904 136.239 9.75936 142.459C4.76194 153.432 2.90456 157.129 1.80224 158.303C1.24215 158.9 0.748973 159.142 0.748973 158.82H0.745154V158.817ZM14.038 111.513C13.9144 106.133 13.8029 104.311 13.4799 102.435C12.8599 98.8338 11.3772 92.7971 10.3169 89.553C8.48181 83.9424 5.58072 79.1099 4.04702 79.1099C3.54493 79.1099 3.41112 79.2325 3.07468 79.9914C1.79586 82.8723 1.64231 89.2964 2.72169 94.8688C3.62139 99.5165 5.51573 104.745 8.41618 110.585C9.57585 112.921 10.5635 114.831 10.6106 114.831C10.6578 114.831 10.661 114.677 10.6176 114.49C10.5737 114.302 9.91801 110.943 9.16104 107.027C7.91153 100.557 7.37885 97.9872 7.08893 97.0206C7.03222 96.8326 7.0679 96.6795 7.16858 96.6795C7.9402 96.6795 10.61 106.532 12.8815 117.761C13.3263 119.963 13.7494 121.984 13.822 122.252C14.0871 123.238 14.1903 118.11 14.0393 111.514H14.038V111.513ZM35.5072 108.4C45.3357 101.688 50.2924 97.0085 50.9722 93.8063C51.0825 93.2849 51.0156 93.0854 50.5836 92.6555C50.0885 92.1645 49.9865 92.1417 48.6434 92.2414C46.8924 92.3754 44.2793 93.2309 41.7287 94.5043C35.4575 97.6417 30.0103 102.804 25.0109 110.344C23.1198 113.197 21.0598 116.604 21.163 116.702C21.2063 116.748 21.7193 116.196 22.3042 115.479C24.8064 112.404 30.4314 107.318 34.8222 104.165C38.7543 101.342 40.734 100.556 37.5182 103.095C32.9215 106.724 25.522 113.538 23.23 116.25C22.5151 117.098 22.8649 116.898 27.2137 113.994C29.8363 112.242 33.5683 109.723 35.5072 108.4ZM21.7811 89.0169C21.0572 80.9472 19.751 75.632 16.9047 69.1577C14.7364 64.2261 12.6847 61.2805 10.7107 60.2599C10.1359 59.9652 10.083 59.9728 9.65486 60.371C9.02532 60.9617 8.77492 62.1582 8.77492 64.5748C8.77492 70.393 11.1873 76.2449 16.5428 83.4165C17.7095 84.977 18.8169 86.474 19.003 86.7343L19.3419 87.2107L19.1348 86.627C19.0202 86.305 17.9624 83.4477 16.7836 80.2836C11.9341 67.2518 12.2405 68.1797 12.7879 68.1797C12.9497 68.1797 13.0823 68.2724 13.0823 68.3867C13.0823 68.5017 13.6889 69.9751 14.4312 71.6582C15.9993 75.2179 19.2113 83.2139 20.7367 87.3561C21.3197 88.9407 21.818 90.237 21.8429 90.237C21.869 90.2363 21.8416 89.687 21.7811 89.0169ZM37.6609 85.3651C41.2648 84.1958 47.527 81.952 48.8128 81.369C52.0593 79.8923 54.4532 77.9521 55.177 76.2106C55.8002 74.7111 54.7208 73.9058 52.3492 74.1014C48.551 74.412 42.9954 77.1036 38.249 80.9352C36.635 82.2352 32.4832 86.1094 32.682 86.1278C32.7431 86.1316 33.4045 85.6483 34.15 85.05C37.659 82.2467 44.1678 78.906 45.6371 79.16C46.0131 79.2242 45.9417 79.2972 45.1784 79.6434C42.4194 80.8856 36.0539 84.7782 34.2341 86.3317L33.5492 86.9185L34.9204 86.3666C35.6729 86.0592 36.9077 85.6115 37.6609 85.3651ZM34.0379 76.4869C34.0379 75.1062 36.93 63.5014 37.573 62.3043C37.8317 61.821 38.4421 61.7936 38.2541 62.2738C37.8514 63.2969 35.0109 75.8804 35.0198 76.5942C35.0268 77.0274 37.6902 70.2698 38.5306 67.6925C39.524 64.644 40.0216 62.672 40.5053 59.8534C40.9073 57.5067 41.0488 54.7338 40.8054 53.9666C40.2663 52.2715 36.8631 55.8109 35.288 59.6997C33.5364 64.0305 32.8623 70.4661 33.5766 76.0379C33.7015 76.9969 34.0379 77.3265 34.0379 76.4869ZM47.3543 69.3336C52.9552 67.5928 55.3478 66.4763 59.4971 63.6729C62.23 61.8286 63.7535 60.498 64.3556 59.4234L64.808 58.6187L64.2925 58.3844C63.5311 58.0357 61.1442 58.4384 58.2712 59.3967C54.4812 60.6587 51.2157 62.3309 48.4318 64.4357C47.1734 65.3871 42.8501 69.138 42.8501 69.2803C42.8501 69.326 43.4898 69.004 44.2704 68.5664C47.0555 67.0053 54.2901 63.4926 54.724 63.4926C54.7641 63.4926 54.7966 63.5764 54.7966 63.6799C54.7966 63.9105 53.5554 64.6389 48.0406 67.6532C45.6709 68.9456 43.4675 70.1695 43.1438 70.3682L42.557 70.7328L43.1438 70.5988C43.4675 70.5232 45.3625 69.9554 47.3543 69.3336ZM47.9456 54.1234C49.7253 48.3865 49.9324 47.8797 50.4937 47.8797C50.9085 47.8797 50.9907 48.0759 50.7027 48.3744C50.6059 48.478 50.2102 49.7666 49.824 51.2394C49.4373 52.716 48.8594 54.7293 48.5389 55.7226C48.2203 56.7121 47.9973 57.5645 48.0457 57.6102C48.2062 57.7709 50.4568 52.8767 51.1749 50.8063C52.0115 48.3979 53.5745 42.4184 53.6261 41.4365C53.709 39.8608 53.6382 39.4842 53.2527 39.4842C52.736 39.4842 51.0481 41.0459 50.2886 42.2228C48.5981 44.8496 47.3155 48.9219 46.6018 53.9278C46.1367 57.1878 45.8856 60.5399 46.1622 59.7842C46.2603 59.5161 47.0625 56.9694 47.9456 54.1234ZM23.4944 53.6217C20.8164 47.317 20.9062 47.4999 19.9135 46.2005C19.0437 45.0617 19.01 44.9493 19.5414 44.9493C20.515 44.9493 23.0484 49.4675 25.6309 55.8071L26.8142 58.7108L26.6982 57.3453C26.3936 53.7633 25.016 47.4269 23.7398 43.7381C22.0621 38.8942 19.5828 35.2086 18.1453 35.4201C17.914 35.4544 17.5432 35.7269 17.3208 36.0254C16.7671 36.7659 16.6466 39.6849 17.0697 42.1199C17.7821 46.2157 19.2342 49.3722 22.9414 54.8837C24.4126 57.0735 25.6175 58.9566 25.6175 59.0639C25.6175 59.1745 25.6609 59.2208 25.7137 59.1706C25.766 59.1173 24.7675 56.6207 23.4944 53.6217ZM60.2802 52.9193C65.5962 50.6831 70.2393 47.1931 72.0489 44.0716C72.3599 43.5343 72.6154 42.9017 72.616 42.668C72.6211 41.6937 71.0154 41.3597 68.9637 41.9046C66.2168 42.6331 63.5986 44.3663 60.3783 47.5844C58.2036 49.759 55.1891 53.1416 55.1891 53.4064C55.1891 53.4718 56.2207 52.7732 57.4811 51.8536C61.6202 48.8425 63.3317 48.3865 59.736 51.2515C58.5808 52.1718 57.1962 53.3257 56.6572 53.8129L55.6785 54.7033L57.0491 54.2003C57.8035 53.9285 59.2575 53.3492 60.2802 52.9193ZM35.0249 50.6107C38.8524 46.4805 42.1333 42.0697 43.3426 39.4385C43.918 38.1854 44.6132 35.5884 44.6132 34.691C44.6132 33.8165 44.0365 33.1452 43.4185 33.2989C42.0046 33.652 38.9206 36.4776 36.9141 39.2549C34.8242 42.1504 32.8139 46.4844 31.319 51.3163C30.9839 52.4017 30.7099 53.3683 30.7118 53.4636C30.7143 53.5601 31.3184 52.4931 32.055 51.0971C34.4323 46.5987 37.2232 42.2838 39.0085 40.3505C40.1395 39.1241 40.1593 39.4842 39.0544 41.1876C36.7242 44.7765 31.1011 55.0818 32.2053 53.736C32.5131 53.36 33.7824 51.9533 35.0249 50.6107ZM27.1914 35.2048C26.147 33.1337 24.6649 30.6409 23.0299 28.2059C21.4255 25.8122 21.3376 25.6249 21.8333 25.6249C22.4386 25.6249 25.327 29.6438 27.2372 33.1414C27.7655 34.1086 28.1573 34.7679 28.1089 34.6066C28.0598 34.4459 27.7763 33.4792 27.4768 32.4631C26.3847 28.7502 24.7331 25.2679 22.9248 22.8672C20.7775 20.0181 17.3208 16.8464 16.8607 17.3062C16.776 17.39 16.7059 18.4837 16.7059 19.7374C16.7059 22.2378 16.9079 23.0895 18.0899 25.555C19.1616 27.795 20.9272 29.9849 24.4751 33.4818C26.3 35.281 27.833 36.75 27.8821 36.75C27.9311 36.7507 27.6202 36.0565 27.1914 35.2048ZM36.089 30.211C37.3041 28.6003 38.6052 26.8017 38.9818 26.2111C41.4661 22.3071 43.2643 16.5504 42.1352 16.1205C41.9549 16.0512 41.4311 16.1973 40.9558 16.4469C38.9601 17.5018 35.8698 21.3861 34.2634 24.8576C33.6052 26.2803 31.6873 31.4729 31.6873 31.8337C31.6873 31.9029 32.3742 30.7286 33.214 29.2297C34.4533 27.0164 35.9252 24.6265 36.8179 23.3842C36.8937 23.2807 37.0046 23.2464 37.0651 23.3073C37.1257 23.3651 36.1947 25.4705 34.9962 27.9862C33.7977 30.498 32.4749 33.302 32.0588 34.2141L31.3012 35.8711L32.5908 34.5056C33.3 33.7555 34.8745 31.8222 36.089 30.211ZM27.8763 20.236C27.5921 18.8864 27.0932 16.988 26.7676 16.0169C26.3223 14.694 26.2311 14.1999 26.3994 14.0341C26.9703 13.474 28.0866 16.2742 29.0341 20.6456C29.2909 21.8275 29.5094 22.7059 29.5196 22.5986C29.5324 22.4912 29.6751 21.4827 29.8401 20.3547C30.1925 17.9419 30.2396 11.676 29.9261 9.0987C29.6579 6.8936 29.0647 4.71518 28.4033 3.50276C27.7699 2.34432 26.6944 1.42024 25.9782 1.42024C24.8038 1.42024 23.6811 3.75617 23.2255 7.15019C22.9318 9.34004 23.2351 11.7179 24.1597 14.4717C24.8688 16.5885 28.1815 23.3232 28.316 22.9237C28.3574 22.798 28.1599 21.5862 27.8763 20.236Z" fill="#FF3126"/>
</svg>
