<svg width="247" height="284" viewBox="0 0 247 284" fill="none" xmlns="http://www.w3.org/2000/svg">
<path d="M70.6613 0.0794584C71.758 -0.284845 72.4215 0.877092 73.1232 1.48299C73.7636 2.27678 75.0445 2.90185 74.7722 4.0983C74.5459 5.01481 73.2344 5.37528 72.5979 4.66201C71.7389 3.85287 70.8991 3.02073 70.0976 2.15407C69.4457 1.53667 69.8215 0.30571 70.6613 0.0794584Z" fill="#183D3D"/>
<path d="M83.3091 0.0564421C84.3483 -0.281018 85.3799 0.965283 84.8276 1.92014C83.9495 2.96703 82.9524 3.92189 81.9401 4.8384C80.8433 5.62837 79.3363 4.12513 80.1454 3.03222C81.1539 2.01217 82.0743 0.792718 83.3091 0.0564421Z" fill="#183D3D"/>
<path d="M138.138 9.67022C139.434 9.29825 140.623 10.1917 141.746 10.7018C143.357 11.4687 143.387 13.992 141.842 14.8472C140.331 15.7713 138.705 14.5749 137.363 13.8961C135.775 12.8492 136.285 10.0997 138.138 9.67022Z" fill="#183D3D"/>
<path d="M72.89 10.3145C73.9638 9.66638 75.3059 11.0431 74.6617 12.113C73.6991 13.1714 72.706 14.2259 71.59 15.1233C70.4588 15.6563 69.2316 14.1722 69.9948 13.1905C70.9036 12.1782 71.8546 11.1926 72.89 10.3145Z" fill="#183D3D"/>
<path d="M80.5665 10.3605C81.1264 9.96165 81.8972 10.1994 82.3152 10.6903C83.1819 11.5608 84.1099 12.3814 84.8692 13.3478C85.3447 14.3755 84.2441 15.5719 83.1818 15.1348C82.1158 14.341 81.2491 13.3017 80.3019 12.3737C79.7037 11.8292 79.8609 10.7363 80.5665 10.3605Z" fill="#183D3D"/>
<path d="M83.2728 17.612C97.0664 10.5714 113.656 9.2599 128.389 14.0419C124.332 13.4551 120.225 13.1138 116.125 13.3478C114.127 13.3631 112.16 13.7734 110.17 13.8501C99.0183 13.7926 87.8975 17.1825 78.6174 23.3604C68.7658 29.8335 61.0196 39.2823 56.1072 49.9583C50.5392 62.0187 48.5758 75.6551 50.1979 88.8199C51.0914 95.8721 51.9964 102.924 52.909 109.973C53.1046 111.771 53.3424 113.562 53.607 115.353C61.173 114.57 68.7045 113.474 76.2513 112.511C76.2053 111.664 76.1478 110.816 76.0481 109.976C75.9407 109.098 75.8256 108.224 75.7144 107.35C74.9628 101.693 74.2841 96.0293 73.5401 90.373C73.1643 87.1863 72.6351 84.0111 72.6313 80.7976C72.4357 71.2068 74.9935 61.4741 80.3813 53.4902C85.0291 46.4649 91.9662 40.8201 100.069 38.3275C104.088 36.993 108.371 36.6632 112.582 36.8626C120.39 37.4455 127.867 40.751 133.807 45.8014C142.834 53.402 148.479 64.6072 150.002 76.2419C151.137 85.0465 152.256 93.8511 153.388 102.656C154.799 102.499 156.206 102.307 157.621 102.123C157.625 103.012 157.633 103.902 157.625 104.796C144.299 106.46 130.985 108.212 117.659 109.884C89.5465 113.493 61.4337 117.094 33.321 120.695C30.9741 120.994 28.5467 121.151 26.3801 122.194C23.6536 123.509 21.3642 125.768 20.1102 128.533C19.0902 130.722 18.7144 133.204 19.0288 135.6C19.3931 138.549 19.7958 141.494 20.1332 144.451C20.1869 151.231 20.2061 158.011 20.1179 164.791C19.0058 156.362 17.9589 147.918 16.8622 139.485C16.6589 137.56 16.2601 135.65 16.2985 133.71C16.3138 130.055 17.7327 126.458 20.1102 123.697C22.6642 120.764 26.3609 118.831 30.234 118.432C37.106 117.481 44.0124 116.76 50.8689 115.736C50.892 113.803 50.3781 111.917 50.24 109.996C49.6572 105.256 49.0359 100.524 48.4339 95.7877C47.8663 91.1821 47.13 86.5842 47.0495 81.9327C46.6315 67.5331 50.3781 52.961 58.1052 40.7625C64.237 30.9992 72.9457 22.7966 83.2728 17.612ZM102.036 40.636C96.9897 41.7059 92.4417 44.5321 88.6069 47.9144C81.3477 54.5025 76.9147 63.8824 75.6761 73.546C74.913 78.7728 75.2543 84.0878 76.0634 89.2878C76.8342 95.6266 77.7814 101.958 78.4333 108.304C78.5177 108.872 78.648 109.439 78.7592 110.007C78.8053 110.69 78.8589 111.372 78.905 112.062C80.2049 112.139 81.4819 111.844 82.7704 111.706C87.1267 111.115 91.4984 110.667 95.8355 109.969C96.8479 109.938 97.8526 109.781 98.8573 109.65C116.156 107.434 133.458 105.221 150.765 103.009C150.086 97.4328 149.338 91.8647 148.644 86.2928C147.701 79.5628 147.333 72.6525 144.84 66.2561C140.576 54.5179 131.181 44.2177 118.978 40.682C113.498 39.1596 107.474 38.8375 102.036 40.636Z" fill="#183D3D"/>
<path d="M146.909 13.4283C148.359 12.8799 149.655 14.0035 150.825 14.6938C152.358 15.6333 152.105 18.1949 150.437 18.8507C148.938 19.5601 147.546 18.3176 146.319 17.612C144.777 16.5996 145.164 13.992 146.909 13.4283Z" fill="#183D3D"/>
<path d="M154.608 18.4327C155.506 18.0262 156.56 18.2831 157.27 18.9427C158.263 19.7518 159.662 20.6377 159.444 22.1294C159.382 23.7323 157.434 24.8329 156.023 24.066C155.149 23.5444 154.378 22.858 153.669 22.1371C152.668 20.9905 153.185 18.9695 154.608 18.4327Z" fill="#183D3D"/>
<path d="M161.872 23.809C163.506 23.345 164.595 24.9058 165.577 25.9258C166.949 27.245 165.945 29.8603 164.046 29.9293C162.505 30.1249 161.585 28.6907 160.653 27.732C159.429 26.4972 160.154 24.1311 161.872 23.809Z" fill="#183D3D"/>
<path d="M167.639 30.309C168.713 29.8105 170.066 30.2361 170.688 31.237C171.431 32.2724 172.547 33.4151 172.083 34.811C171.639 36.3871 169.46 37.0658 168.233 35.9499C167.547 35.2405 166.975 34.416 166.477 33.5685C165.844 32.4104 166.435 30.8267 167.639 30.309Z" fill="#183D3D"/>
<path d="M172.967 37.9785C174.033 37.4685 175.452 37.8903 176.023 38.9372C176.686 40.0876 177.791 41.3915 177.166 42.7911C176.614 44.3212 174.378 44.7967 173.277 43.5926C172.683 42.8947 172.257 42.074 171.835 41.2726C171.18 40.1106 171.747 38.4962 172.967 37.9785Z" fill="#183D3D"/>
<path d="M184.444 72.4148C185.245 72.0083 186.238 72.3151 186.79 72.9938C187.922 74.1788 189.168 75.2602 190.223 76.5141C191.055 77.6646 190.008 79.4592 188.6 79.3289C187.757 79.371 187.216 78.6386 186.664 78.1286C185.728 77.1507 184.72 76.2495 183.826 75.2371C183.048 74.382 183.4 72.8788 184.444 72.4148Z" fill="#183D3D"/>
<path d="M202.11 72.4799C203.636 71.4829 205.611 73.4233 204.668 74.9764C203.437 76.3991 202.068 77.7221 200.683 78.9952C199.165 80.2339 196.925 78.0787 198.068 76.5026C199.349 75.1029 200.691 73.7378 202.11 72.4799Z" fill="#183D3D"/>
<path d="M187.986 86.7338C189.443 86.0627 191.096 87.8305 190.337 89.2417C189.478 90.465 188.27 91.3892 187.269 92.4898C186.632 93.18 185.77 94.0122 184.746 93.6479C183.357 93.3181 182.928 91.3163 184.059 90.442C185.39 89.2341 186.49 87.7308 187.986 86.7338Z" fill="#183D3D"/>
<path d="M199.096 86.6916C199.863 86.4002 200.673 86.8105 201.186 87.3857C202.26 88.4825 203.376 89.5408 204.427 90.6606C205.336 91.5925 204.822 93.3795 203.537 93.6517C202.755 93.9202 201.976 93.4753 201.463 92.9193C200.373 91.8034 199.215 90.7526 198.184 89.5869C197.34 88.6512 197.908 87.0137 199.096 86.6916Z" fill="#183D3D"/>
<path d="M180.631 99.1853C187.243 98.3455 193.85 97.475 200.465 96.662C206.738 96.0101 213.15 99.6493 215.854 105.336C217.315 108.12 217.414 111.315 217.848 114.359C222.994 154.582 228.137 194.802 233.287 235.024C233.582 237.034 233.754 239.093 233.409 241.11C232.585 246.375 228.861 251.058 223.911 253.04C221.652 254.033 219.159 254.11 216.766 254.517C193.804 257.4 170.845 260.322 147.902 263.325C115.064 267.432 82.2541 271.731 49.4246 275.88C45.2026 276.275 40.8501 274.826 37.6979 271.992C35.1631 269.76 33.4068 266.68 32.7549 263.367C33.6445 263.375 34.5381 263.371 35.4316 263.379C36.8466 269.514 43.1471 274.043 49.4285 273.23C75.1138 269.955 100.799 266.669 126.484 263.371C156.814 259.509 187.139 255.602 217.468 251.74C220.099 251.495 222.798 251 225.027 249.489C228.19 247.461 230.403 244.009 230.867 240.274C231.208 237.981 230.679 235.692 230.426 233.418C226.123 199.66 221.759 165.91 217.491 132.153C217.407 128.966 217.499 125.779 217.441 122.593C217.391 120.188 216.552 117.88 215.39 115.801C214.941 113.221 214.941 110.552 214.124 108.047C212.322 102.433 206.32 98.5602 200.453 99.3118C193.842 100.144 187.235 100.976 180.628 101.854C180.616 100.965 180.62 100.075 180.631 99.1853Z" fill="#183D3D"/>
<path d="M91.5921 135.65C98.2876 130.745 106.701 128.337 114.98 128.797C124.211 129.304 133.169 133.484 139.492 140.225C148.143 149.264 151.541 162.935 148.113 174.972C146.08 182.365 141.651 189.069 135.657 193.854C135.98 194.752 136.313 195.649 136.681 196.535C136.467 196.765 136.252 196.995 136.033 197.221C135.531 197.551 134.986 197.808 134.461 198.088L134.258 197.724C133.671 196.113 133.092 194.502 132.54 192.88C138.484 188.662 142.997 182.477 145.194 175.528C147.15 169.465 147.304 162.85 145.682 156.695C143.737 149.149 139.074 142.346 132.739 137.809C123.141 130.761 109.642 129.284 98.8896 134.507C87.1782 139.611 79.1866 152.005 79.0524 164.741C78.8299 173.258 82.0895 181.798 87.8378 188.075C91.4502 191.937 95.8832 195.143 100.899 196.899C103.192 197.896 105.654 198.41 108.105 198.847C109.405 208.319 110.636 217.802 111.932 227.278C112.561 231.914 115.452 236.144 119.494 238.487C122.93 240.489 127.198 241.252 131.052 240.129C129.476 241.367 127.834 242.759 125.852 243.227C117.883 242.633 110.774 236.294 109.447 228.39C108.174 219.451 107.054 210.49 105.811 201.547C105.792 200.818 104.768 200.96 104.3 200.688L104.07 200.611C91.6457 197.812 81.2458 187.7 77.8406 175.455C75.2483 166.624 76.1878 156.795 80.475 148.646C83.0712 143.504 86.952 139.048 91.5921 135.65Z" fill="#183D3D"/>
<path d="M0.431478 137.66C0.979851 137.15 1.90403 137.249 2.36804 137.824C3.25004 138.749 4.30077 139.546 4.98336 140.635C5.42819 141.767 3.96714 142.844 3.01995 142.142C2.06126 141.303 1.17543 140.382 0.308769 139.458C-0.182082 138.948 -0.0478681 138.12 0.431478 137.66Z" fill="#183D3D"/>
<path d="M13.086 137.617C14.0983 136.663 15.8202 138.127 15.0302 139.278C14.1635 140.298 13.201 141.241 12.2001 142.131C11.1226 142.967 9.51196 141.441 10.3978 140.329C11.2299 139.366 12.1464 138.476 13.086 137.617Z" fill="#183D3D"/>
<path d="M3.11118 147.638C4.19259 146.963 5.56544 148.385 4.86751 149.448C4.20409 150.287 3.38345 150.985 2.63951 151.756C2.22152 152.14 1.72299 152.715 1.07875 152.492C0.0855464 152.385 -0.378458 150.985 0.369323 150.314C1.25516 149.394 2.12181 148.443 3.11118 147.638Z" fill="#183D3D"/>
<path d="M10.7851 147.687C11.2376 147.377 11.9048 147.4 12.2998 147.795C13.2355 148.654 14.1597 149.54 14.988 150.502C15.7511 151.484 14.501 152.964 13.3927 152.439C12.3727 151.699 11.5597 150.709 10.6585 149.835C9.97977 149.298 10.0066 148.109 10.7851 147.687Z" fill="#183D3D"/>
<path d="M231.756 186.112C232.255 185.813 232.926 185.959 233.309 186.384C234.199 187.27 235.146 188.114 235.94 189.095C236.558 190.108 235.304 191.423 234.249 190.894C233.21 190.135 232.374 189.134 231.465 188.233C230.79 187.669 230.974 186.48 231.756 186.112Z" fill="#183D3D"/>
<path d="M244.374 186.093C245.397 185.521 246.628 186.741 246.172 187.795C245.321 188.861 244.312 189.805 243.307 190.725C242.314 191.63 240.654 190.23 241.356 189.103C242.253 188.006 243.261 186.971 244.374 186.093Z" fill="#183D3D"/>
<path d="M233.999 196.393C235.069 195.43 236.741 197.053 235.863 198.165C234.942 199.173 234.007 200.193 232.929 201.033C231.882 201.601 230.632 200.354 231.154 199.292C232.009 198.241 232.998 197.298 233.999 196.393Z" fill="#183D3D"/>
<path d="M241.919 196.236C242.44 196.002 243.107 196.102 243.487 196.558C244.377 197.451 245.339 198.291 246.125 199.281C246.693 200.316 245.397 201.62 244.373 201.029C243.299 200.197 242.371 199.177 241.455 198.184C240.925 197.547 241.278 196.635 241.919 196.236Z" fill="#183D3D"/>
<path d="M110.128 268.87C111.236 268.421 111.942 269.645 112.655 270.266C113.227 270.983 114.274 271.497 114.327 272.509C114.4 273.602 112.885 274.254 112.141 273.464C111.279 272.647 110.435 271.811 109.63 270.945C108.993 270.339 109.315 269.146 110.128 268.87Z" fill="#183D3D"/>
<path d="M122.783 268.836C123.842 268.433 124.988 269.764 124.325 270.734C123.431 271.762 122.45 272.716 121.445 273.633C120.356 274.381 118.899 272.916 119.646 271.834C120.632 270.788 121.583 269.633 122.783 268.836Z" fill="#183D3D"/>
<path d="M101.001 270.868C102.171 270.619 103.394 270.373 104.595 270.515C106.309 270.983 106.6 273.583 105.016 274.396C103.793 274.826 102.439 274.967 101.151 274.898C99.2183 274.473 99.0725 271.409 101.001 270.868Z" fill="#183D3D"/>
<path d="M92.1444 271.992C93.2143 271.854 94.3418 271.505 95.4078 271.792C96.9034 272.252 97.2485 274.473 96.0214 275.412C95.078 276.083 93.8317 275.98 92.735 276.149C91.4925 276.394 90.2462 275.316 90.3152 274.055C90.2807 273.023 91.1206 272.087 92.1444 271.992Z" fill="#183D3D"/>
<path d="M82.959 273.192C83.9177 273.058 84.8841 272.843 85.8581 272.939C87.2463 273.215 87.9826 275.033 87.1312 276.183C86.3605 277.36 84.7767 277.142 83.5687 277.376C82.403 277.633 81.1145 276.762 81.0378 275.546C80.8537 274.385 81.7932 273.253 82.959 273.192Z" fill="#183D3D"/>
<path d="M73.7254 274.289C74.8068 274.074 75.9151 273.89 77.0233 273.947C78.4537 274.212 79.1631 276.103 78.2773 277.253C77.6599 278.169 76.4443 278.158 75.4702 278.311C74.5844 278.415 73.5145 278.584 72.8434 277.843C71.6585 276.827 72.1877 274.615 73.7254 274.289Z" fill="#183D3D"/>
<path d="M64.5684 275.489C65.9911 275.324 67.897 274.58 68.9477 275.968C69.9562 277.18 69.0666 279.262 67.4828 279.347C66.1483 279.466 64.4227 280.125 63.3949 278.917C62.3519 277.79 63.0383 275.715 64.5684 275.489Z" fill="#183D3D"/>
<path d="M55.7284 276.632C56.5682 276.501 57.4119 276.363 58.267 276.375C59.6552 276.505 60.5487 278.231 59.8431 279.443C59.2219 280.773 57.5729 280.601 56.3535 280.819C54.9921 281.23 53.4314 280.075 53.6154 278.626C53.6461 277.514 54.6547 276.662 55.7284 276.632Z" fill="#183D3D"/>
<path d="M112.392 279.097C113.201 278.61 114.347 279.262 114.328 280.213C114.386 280.969 113.665 281.402 113.231 281.908C112.503 282.568 111.905 283.392 111.057 283.902C109.987 284.386 108.779 282.967 109.489 282C110.386 280.969 111.36 279.995 112.392 279.097Z" fill="#183D3D"/>
<path d="M120.061 279.143C121.426 278.38 122.293 280.068 123.194 280.804C123.988 281.467 125.134 282.652 124.076 283.638C122.603 284.75 121.545 282.694 120.548 281.897C119.67 281.295 118.907 279.884 120.061 279.143Z" fill="#183D3D"/>
<path d="M110.171 13.8501C112.161 13.7735 114.128 13.3631 116.126 13.3478C120.225 13.1139 124.332 13.4552 128.39 14.0419C141.992 16.3197 154.531 23.7439 163.512 34.1553C175.128 47.3891 181.037 65.1671 180.638 82.692C180.635 88.191 180.65 93.6901 180.631 99.1853C180.619 100.075 180.615 100.965 180.627 101.854C180.646 103.695 180.635 105.536 180.654 107.376C172.969 107.361 165.284 107.422 157.599 107.342C157.607 106.491 157.614 105.643 157.626 104.796C157.634 103.902 157.626 103.012 157.622 102.123C157.568 95.5231 157.607 88.9196 157.595 82.32C157.649 78.2015 157.304 74.0714 156.414 70.0487C154.021 59.0774 147.744 48.7696 138.372 42.4154C130.94 37.2883 121.476 35.1485 112.583 36.8626C108.372 36.6632 104.089 36.993 100.07 38.3275C91.967 40.8201 85.0299 46.4649 80.3821 53.4902C74.9943 61.4742 72.4365 71.2068 72.6321 80.7976C72.6359 84.0111 73.1651 87.1863 73.5409 90.373C74.2848 96.0293 74.9636 101.693 75.7152 107.35C69.4722 107.407 63.2254 107.38 56.9785 107.365C57.0015 98.6331 56.99 89.8975 56.9862 81.1619C56.944 67.7862 60.5602 54.3722 67.6047 42.9791C73.4604 33.488 81.7128 25.4158 91.5643 20.1392C97.3548 17.0023 103.682 14.9277 110.171 13.8501Z" fill="#CDE3C5"/>
<path d="M88.6085 47.9144C92.4433 44.5322 96.9913 41.7059 102.038 40.636C92.3244 46.1849 85.2953 55.791 82.1507 66.4517C80.5977 71.5903 79.9381 76.9782 80.0339 82.343C80.0033 90.6836 80.1106 99.0319 79.9688 107.373C79.4511 107.407 78.9334 107.457 78.4195 107.522C78.4233 107.718 78.431 108.109 78.4348 108.304C77.7829 101.958 76.8357 95.6267 76.065 89.2878C75.2558 84.0878 74.9145 78.7728 75.6776 73.546C76.9163 63.8824 81.3493 54.5026 88.6085 47.9144Z" fill="#CDE3C5"/>
<path d="M23.6395 114.091C25.9825 111.518 29.4262 109.961 32.912 109.969C38.6871 109.9 44.47 109.869 50.2413 109.996C50.3794 111.917 50.8932 113.803 50.8702 115.736C44.0136 116.76 37.1072 117.481 30.2353 118.432C26.3622 118.831 22.6655 120.764 20.1115 123.697C19.985 120.204 21.2006 116.63 23.6395 114.091Z" fill="#CDE3C5"/>
<path d="M52.9102 109.973C60.6219 109.904 68.3374 109.927 76.0492 109.976C76.1489 110.816 76.2064 111.664 76.2524 112.511C68.7056 113.474 61.1741 114.57 53.6081 115.353C53.3435 113.562 53.1057 111.771 52.9102 109.973Z" fill="#CDE3C5"/>
<path d="M78.7607 110.007C84.4515 109.819 90.1462 110.026 95.837 109.969C91.4999 110.667 87.1282 111.115 82.7719 111.706C81.4834 111.844 80.2065 112.139 78.9065 112.062C78.8604 111.372 78.8068 110.69 78.7607 110.007Z" fill="#CDE3C5"/>
<path d="M33.3221 120.695C61.4348 117.094 89.5475 113.493 117.66 109.884C145.907 109.984 174.15 109.919 202.393 109.927C204.307 109.984 206.266 109.857 208.119 110.456C211.094 111.28 213.629 113.29 215.389 115.801C216.551 117.88 217.391 120.188 217.441 122.593C217.499 125.779 217.407 128.966 217.491 132.153C217.487 172.015 217.533 211.878 217.468 251.74C187.139 255.602 156.813 259.509 126.484 263.371C96.1319 263.417 65.7835 263.402 35.4312 263.379C34.5377 263.371 33.6442 263.375 32.7546 263.367C26.0475 263.333 20.1152 257.347 20.142 250.64C20.1113 222.025 20.1573 193.406 20.119 164.791C20.2072 158.011 20.188 151.231 20.1343 144.451C20.119 139.144 20.1612 133.836 20.1113 128.533C21.3653 125.768 23.6547 123.509 26.3812 122.194C28.5478 121.151 30.9752 120.994 33.3221 120.695ZM114.98 128.797C106.7 128.337 98.287 130.746 91.5915 135.65C86.9514 139.048 83.0706 143.504 80.4745 148.646C76.1872 156.795 75.2477 166.624 77.84 175.455C81.2453 187.7 91.6452 197.812 104.07 200.611L104.3 200.688C104.012 200.722 103.433 200.799 103.146 200.837C102.452 208.511 101.535 216.165 100.776 223.835C100.262 227.439 100.791 231.201 102.421 234.468C105.19 240.278 111.226 244.358 117.66 244.711C120.433 244.826 123.355 244.523 125.851 243.227C127.834 242.759 129.475 241.367 131.051 240.129C132.524 238.541 134 236.911 134.967 234.952C136.846 231.439 137.421 227.332 136.807 223.413C136.017 214.846 134.809 206.306 134.257 197.724L134.46 198.088C134.986 197.808 135.53 197.551 136.033 197.221C136.872 197.658 136.98 196.477 137.639 196.286C147.606 190.361 154.401 179.432 155.172 167.847C156.334 154.924 149.834 141.721 138.97 134.661C131.987 129.979 123.332 127.85 114.98 128.797Z" fill="#CDE3C5"/>
<path d="M79.0517 164.741C79.1859 152.005 87.1776 139.612 98.889 134.507C95.5642 136.858 92.4887 139.596 89.9846 142.817C85.8776 148.155 83.1971 154.621 82.5375 161.339C81.6287 169.665 83.7761 178.258 88.42 185.222C91.5837 190.039 95.9707 193.95 100.898 196.899C95.8825 195.143 91.4495 191.937 87.8372 188.075C82.0888 181.798 78.8293 173.258 79.0517 164.741Z" fill="#CDE3C5"/>
<path d="M147.902 263.325C170.846 260.322 193.805 257.4 216.767 254.517C215.513 258.643 211.905 261.891 207.755 262.957C205.389 263.62 202.908 263.337 200.485 263.394C182.956 263.352 165.427 263.486 147.902 263.325Z" fill="#CDE3C5"/>
</svg>
