<svg width="135" height="42" viewBox="0 0 135 42" fill="none" xmlns="http://www.w3.org/2000/svg">
  <rect x="0.5" y="1.5" width="134" height="39" rx="7.5" fill="white"/>
  <path d="M67.755 13.0614H67.575C67.3623 13.0614 67.1564 13.0395 66.9573 12.9959C66.7609 12.9495 66.5796 12.8827 66.4132 12.7955C66.2469 12.7055 66.0982 12.595 65.9673 12.4641C65.8391 12.3305 65.7382 12.1764 65.6646 12.0018C65.5991 12.1245 65.5119 12.2309 65.4028 12.3209C65.2964 12.4082 65.1709 12.4818 65.0264 12.5418C64.8437 12.6182 64.6623 12.6632 64.4823 12.6768C64.4278 12.6823 64.3732 12.685 64.3187 12.685C64.1959 12.685 64.0637 12.6686 63.9219 12.6359C63.78 12.6032 63.6369 12.5418 63.4923 12.4518C63.3505 12.3618 63.2264 12.25 63.12 12.1164C63.0137 11.9827 62.9305 11.83 62.8705 11.6582C62.8105 11.4836 62.7805 11.2927 62.7805 11.0855C62.7805 10.7964 62.8364 10.5359 62.9482 10.3041C63.0628 10.0723 63.2128 9.86773 63.3982 9.69045C63.5864 9.51318 63.8019 9.36182 64.0446 9.23636C64.2873 9.10818 64.5382 9.00318 64.7973 8.92136C64.7837 8.85045 64.77 8.785 64.7564 8.725C64.7428 8.66227 64.7305 8.59818 64.7196 8.53273L65.5787 8.32818L66.3069 11.2695C66.3559 11.4659 66.4309 11.6227 66.5319 11.74C66.6355 11.8573 66.7473 11.9486 66.8673 12.0141C66.99 12.0768 67.1141 12.1177 67.2396 12.1368C67.365 12.1559 67.4769 12.1655 67.575 12.1655H67.755V13.0614ZM65.2309 11.0732C65.2419 11.0132 65.2473 10.9518 65.2473 10.8891C65.2473 10.8455 65.2419 10.7868 65.2309 10.7132C65.2228 10.6368 65.2064 10.5441 65.1819 10.435C65.1573 10.3232 65.13 10.2127 65.1 10.1036C65.07 9.99455 65.0441 9.88818 65.0223 9.78455C64.5587 9.92909 64.2028 10.1132 63.9546 10.3368C63.7064 10.5605 63.5823 10.8114 63.5823 11.0895C63.5823 11.2341 63.6164 11.3555 63.6846 11.4536C63.7555 11.5518 63.8441 11.6282 63.9505 11.6827C64.0569 11.7345 64.1755 11.7632 64.3064 11.7686H64.3473C64.4619 11.7686 64.5723 11.7495 64.6787 11.7114C64.8341 11.6459 64.9569 11.5655 65.0469 11.47C65.1396 11.3718 65.2009 11.2395 65.2309 11.0732ZM72.6232 11.8341C72.6532 11.9186 72.6982 11.9827 72.7582 12.0264C72.8182 12.0727 72.8809 12.1068 72.9463 12.1286C73.0118 12.1477 73.0732 12.1586 73.1304 12.1614C73.1877 12.1641 73.2286 12.1655 73.2532 12.1655H74.0345V13.0614H73.2532C73.0432 13.0614 72.8482 13.0314 72.6682 12.9714C72.4882 12.9086 72.3272 12.8186 72.1854 12.7014V12.6973C72.0382 12.5773 71.9209 12.4286 71.8336 12.2514C71.8145 12.2595 71.7941 12.2691 71.7722 12.28C71.4886 12.4164 71.1845 12.5432 70.86 12.6605C70.5354 12.775 70.1959 12.8705 69.8413 12.9468C69.4895 13.0232 69.1377 13.0614 68.7859 13.0614H67.6077V12.1655H68.7859C68.9768 12.1655 69.1745 12.1518 69.3791 12.1245C69.5836 12.0973 69.7868 12.0605 69.9886 12.0141C70.1932 11.965 70.395 11.9091 70.5941 11.8464C70.7932 11.7836 70.9841 11.7168 71.1668 11.6459C71.3522 11.575 71.5254 11.5027 71.6863 11.4291C71.8472 11.3527 71.9918 11.2777 72.12 11.2041L70.0786 10.4882C69.9559 10.4527 69.8468 10.435 69.7513 10.435C69.6559 10.4323 69.5713 10.4486 69.4977 10.4841C69.4241 10.5195 69.36 10.5755 69.3054 10.6518C69.2509 10.7282 69.2018 10.825 69.1582 10.9423L68.3318 10.6927C68.3891 10.51 68.4668 10.3355 68.565 10.1691C68.6632 10.0027 68.7845 9.86364 68.9291 9.75182C69.0736 9.63727 69.2427 9.56091 69.4363 9.52273C69.4963 9.51182 69.5591 9.50636 69.6245 9.50636C69.7691 9.50636 69.9272 9.53364 70.0991 9.58818C70.2518 9.63727 70.3895 9.68364 70.5122 9.72727C70.6377 9.76818 70.7604 9.81182 70.8804 9.85818C71.0004 9.90182 71.1259 9.94955 71.2568 10.0014C71.3904 10.0505 71.5432 10.1077 71.715 10.1732C71.8895 10.2386 72.0913 10.315 72.3204 10.4023C72.5495 10.4868 72.8209 10.585 73.1345 10.6968L73.245 11.4495C73.2286 11.4605 73.1563 11.5068 73.0282 11.5886C72.9218 11.6595 72.7868 11.7414 72.6232 11.8341ZM68.8022 7.84136L69.4813 7.15409L70.1768 7.84955L69.4895 8.53682L68.8022 7.84136ZM73.8246 12.1655H74.3401C74.5146 12.1655 74.6551 12.1505 74.7614 12.1205C74.8705 12.0905 74.9551 12.0468 75.0151 11.9895C75.0751 11.9295 75.1146 11.8573 75.1337 11.7727C75.1555 11.6882 75.1664 11.5927 75.1664 11.4864V10.2345H76.0623V11.4659C76.0623 11.7086 76.1196 11.8859 76.2341 11.9977C76.3514 12.1068 76.5369 12.1627 76.7905 12.1655C76.8341 12.1627 76.8887 12.1545 76.9541 12.1409C77.0223 12.1245 77.0864 12.0932 77.1464 12.0468C77.2091 11.9977 77.2623 11.9295 77.306 11.8423C77.3496 11.7523 77.3714 11.6336 77.3714 11.4864V10.2345H78.2632V11.4659C78.2632 11.7114 78.3219 11.89 78.4391 12.0018C78.5564 12.1109 78.7446 12.1655 79.0037 12.1655C79.0773 12.1655 79.1496 12.1545 79.2205 12.1327C79.2914 12.1082 79.3555 12.07 79.4128 12.0182C79.4701 11.9664 79.5164 11.8995 79.5519 11.8177C79.5901 11.7332 79.6119 11.6295 79.6173 11.5068V10.2345H80.5132V11.5068C80.5187 11.7386 80.5882 11.9064 80.7219 12.01C80.8555 12.1136 81.0587 12.1655 81.3314 12.1655H81.7569V13.0614H81.3314C81.0532 13.0614 80.8078 13.0273 80.5951 12.9591C80.3851 12.8882 80.2078 12.7818 80.0632 12.64C79.9323 12.7818 79.7728 12.8882 79.5846 12.9591C79.3991 13.0273 79.2055 13.0614 79.0037 13.0614C78.7473 13.0614 78.5223 13.0273 78.3287 12.9591C78.1351 12.8882 77.9646 12.7832 77.8173 12.6441C77.6782 12.775 77.5187 12.8773 77.3387 12.9509C77.1614 13.0218 76.9841 13.0586 76.8069 13.0614H76.7782C76.5301 13.0614 76.3105 13.0259 76.1196 12.955C75.9287 12.8814 75.7637 12.7832 75.6246 12.6605C75.4691 12.7941 75.2864 12.895 75.0764 12.9632C74.8664 13.0286 74.621 13.0614 74.3401 13.0614H73.8246V12.1655ZM83.909 9.65364C83.9144 9.67 83.9253 9.715 83.9417 9.78864C83.9581 9.85955 83.9772 9.94818 83.999 10.0545C84.0235 10.1609 84.0467 10.2782 84.0685 10.4064C84.0931 10.5345 84.1149 10.6641 84.134 10.795C84.1558 10.9232 84.1735 11.0486 84.1872 11.1714C84.2008 11.2914 84.2076 11.3964 84.2076 11.4864C84.2076 11.7564 84.1626 11.9909 84.0726 12.19C83.9826 12.3891 83.8653 12.5527 83.7208 12.6809C83.579 12.8091 83.4181 12.9045 83.2381 12.9673C83.0581 13.03 82.8781 13.0614 82.6981 13.0614H81.5935V12.1655H82.7267C82.7622 12.1655 82.814 12.16 82.8822 12.1491C82.9531 12.1382 83.0226 12.1109 83.0908 12.0673C83.159 12.0209 83.2176 11.9527 83.2667 11.8627C83.3185 11.7727 83.3444 11.6473 83.3444 11.4864C83.3444 11.4264 83.339 11.3514 83.3281 11.2614C83.3172 11.1714 83.3035 11.0745 83.2872 10.9709C83.2708 10.8673 83.2517 10.7609 83.2299 10.6518C83.2081 10.5427 83.1863 10.4405 83.1644 10.345C83.1453 10.2495 83.1263 10.1636 83.1072 10.0873C83.0881 10.0109 83.0731 9.95227 83.0622 9.91136L83.909 9.65364ZM82.5222 7.98045L83.2013 7.29318L83.8967 7.98864L83.2094 8.67591L82.5222 7.98045Z" fill="#616161"/>
  <path d="M26.8432 26.7418C26.8432 26.9127 26.9014 27.0473 27.0178 27.1455C27.1305 27.2436 27.2796 27.2927 27.4651 27.2927H27.8741V29.0818H27.3014L27.1323 29.0709C27.0087 29.06 26.9087 29.0382 26.8323 29.0055C26.7887 29.8273 26.556 30.4836 26.1341 30.9745C25.836 31.3164 25.4487 31.5764 24.9723 31.7545C24.5178 31.9218 23.9814 32.0055 23.3632 32.0055H22.5396C21.9141 32.0055 21.3505 31.8909 20.8487 31.6618C20.2778 31.4 19.8323 31.02 19.5123 30.5218C19.1669 29.9691 18.9941 29.3273 18.9941 28.5964C18.9941 28.5055 18.996 28.4145 18.9996 28.3236C19.0432 27.4764 19.3032 26.5364 19.7796 25.5036L21.4051 26.2509C21.0232 27.0727 20.816 27.7945 20.7832 28.4164C20.7796 28.4782 20.7778 28.54 20.7778 28.6018C20.7778 28.9909 20.8596 29.3091 21.0232 29.5564C21.1832 29.8109 21.4305 29.9927 21.7651 30.1018C21.8923 30.1455 22.0305 30.1764 22.1796 30.1945C22.296 30.2091 22.416 30.2164 22.5396 30.2164H23.3632C24.0432 30.2164 24.5051 30.0909 24.7487 29.84C24.956 29.6255 25.0596 29.2491 25.0596 28.7109V25.3127H26.8432V26.7418ZM22.0378 24.9036L23.1723 23.7582L24.3287 24.9145L23.1778 26.06L22.0378 24.9036ZM31.4326 27.2927C31.618 27.2927 31.7562 27.2545 31.8471 27.1782C31.9707 27.0764 32.0326 26.8964 32.0326 26.6382V25.3127H33.8216V26.6382C33.8216 26.8745 33.8544 27.0345 33.9198 27.1182C34.0035 27.2345 34.1744 27.2927 34.4326 27.2927C34.618 27.2927 34.7562 27.2545 34.8471 27.1782C34.9671 27.0764 35.0271 26.8964 35.0271 26.6382V25.3127H36.8162V26.6382C36.8162 26.8636 36.858 27.0236 36.9416 27.1182C37.0398 27.2345 37.2198 27.2927 37.4816 27.2927H38.1798V29.0818H37.4816C36.7326 29.0818 36.2107 28.9164 35.9162 28.5855C35.4835 28.9164 34.9889 29.0818 34.4326 29.0818C33.7198 29.0818 33.2162 28.9164 32.9216 28.5855C32.4889 28.9164 32.0016 29.0818 31.4598 29.0818C30.8853 29.0818 30.3816 28.9164 29.9489 28.5855C29.6544 28.9164 29.1326 29.0818 28.3835 29.0818H27.598V27.2927H28.3835C28.6453 27.2927 28.8253 27.2345 28.9235 27.1182C29.0071 27.0236 29.0489 26.8636 29.0489 26.6382V25.3127H30.838V26.6382C30.838 26.8964 30.8998 27.0764 31.0235 27.1782C31.1107 27.2545 31.2471 27.2927 31.4326 27.2927ZM32.818 23.0545L31.738 24.1455L30.658 23.0655L31.738 21.9745L32.818 23.0545ZM35.1853 23.0382L34.1162 24.1182L33.0089 23.0491L34.0998 21.9582L35.1853 23.0382ZM33.8762 21.6309L32.9271 22.58L31.9889 21.6418L32.938 20.6927L33.8762 21.6309ZM42.3451 26.7964C42.3451 26.9709 42.3869 27.0945 42.4705 27.1673C42.5651 27.2509 42.7323 27.2927 42.9723 27.2927H43.7687V29.0818H42.9723C42.736 29.0818 42.5123 29.0564 42.3014 29.0055C42.1341 28.9655 41.9778 28.9091 41.8323 28.8364C41.6651 28.7564 41.5396 28.6764 41.456 28.5964C41.3723 28.6764 41.2378 28.7564 41.0523 28.8364C40.6851 29 40.2487 29.0818 39.7432 29.0818H37.9105V27.2927H39.8687C40.1305 27.2927 40.3141 27.2491 40.4196 27.1618C40.5141 27.0855 40.5614 26.9636 40.5614 26.7964V25.3127H42.3451V26.7964ZM41.6305 32.2345L40.5614 31.1545L41.6196 30.0636L42.7105 31.1545L41.6305 32.2345ZM39.3287 32.24L38.2596 31.16L39.3123 30.0691L40.4032 31.16L39.3287 32.24ZM49.4676 26.9927C49.7222 27.1927 50.0767 27.2927 50.5313 27.2927V29.0818C49.6767 29.0818 48.9585 28.8564 48.3767 28.4055C48.2458 28.3073 48.0985 28.1764 47.9349 28.0127C47.7094 28.3109 47.4167 28.5527 47.0567 28.7382C46.6167 28.9673 46.1349 29.0818 45.6113 29.0818H43.5004V27.2927H45.6113C45.8185 27.2927 46.0149 27.2509 46.2004 27.1673C46.3858 27.08 46.5076 26.9745 46.5658 26.8509C46.5949 26.7927 46.6094 26.7255 46.6094 26.6491C46.6094 26.4636 46.5167 26.2309 46.3313 25.9509L46.1458 25.7055C45.9022 25.4036 45.584 25.0036 45.1913 24.5055C45.0494 24.3273 44.9222 24.1655 44.8094 24.02C44.7076 23.8891 44.6549 23.8218 44.6513 23.8182L44.9622 22.4655L49.6913 20.18L50.4713 21.7891L46.7458 23.5891C46.9276 23.8145 47.4876 24.5436 48.4258 25.7764C48.8985 26.4164 49.2458 26.8218 49.4676 26.9927ZM54.6966 26.7964C54.6966 26.9709 54.7384 27.0945 54.8221 27.1673C54.9166 27.2509 55.0839 27.2927 55.3239 27.2927H56.1203V29.0818H55.3239C55.0875 29.0818 54.8639 29.0564 54.653 29.0055C54.4857 28.9655 54.3293 28.9091 54.1839 28.8364C54.0166 28.7564 53.8912 28.6764 53.8075 28.5964C53.7239 28.6764 53.5893 28.7564 53.4039 28.8364C53.0366 29 52.6003 29.0818 52.0948 29.0818H50.2621V27.2927H52.2203C52.4821 27.2927 52.6657 27.2491 52.7712 27.1618C52.8657 27.0855 52.913 26.9636 52.913 26.7964V25.3127H54.6966V26.7964ZM53.9821 32.2345L52.913 31.1545L53.9712 30.0636L55.0621 31.1545L53.9821 32.2345ZM51.6803 32.24L50.6112 31.16L51.6639 30.0691L52.7548 31.16L51.6803 32.24ZM58.8683 26.6382C58.8683 27.0745 59.1065 27.2927 59.5828 27.2927V29.0818C59.2483 29.0818 58.9301 29.0273 58.6283 28.9182C58.3774 28.8273 58.1592 28.7073 57.9737 28.5582C57.5192 28.9073 56.9556 29.0818 56.2828 29.0818H55.8519V27.2927H56.2828C56.6246 27.2927 56.8574 27.2073 56.981 27.0364C57.0246 26.9782 57.0537 26.9073 57.0683 26.8236C57.0719 26.7909 57.0756 26.7564 57.0792 26.72V21.2164H58.8683V26.6382ZM64.0435 26.3109C64.0726 26.4855 64.0871 26.6527 64.0871 26.8127C64.0871 27.3073 63.9453 27.7509 63.6617 28.1436C63.2071 28.7691 62.4671 29.0818 61.4417 29.0818H59.3089V27.2927H61.4035C61.7308 27.2927 61.9617 27.2491 62.0962 27.1618C62.2344 27.0782 62.3035 26.9455 62.3035 26.7636C62.3035 26.7091 62.2962 26.6491 62.2817 26.5836C62.2453 26.3982 62.2089 26.2091 62.1726 26.0164C62.158 25.9436 62.1435 25.8655 62.1289 25.7818L62.1071 25.6782L62.0908 25.5745C62.0362 25.2764 61.9944 25.0636 61.9653 24.9364L63.6726 24.4182C63.7817 24.9309 63.9053 25.5618 64.0435 26.3109ZM60.5908 32.1091L59.5108 31.0509L60.5908 29.9382L61.6708 31.0509L60.5908 32.1091ZM62.9417 32.1309L61.8508 31.0509L62.958 29.9709L64.0271 31.0509L62.9417 32.1309ZM61.7908 33.3909L60.8417 32.4418L61.7799 31.5036L62.7289 32.4527L61.7908 33.3909ZM66.8306 29.0818H65.0415V21.2164H66.8306V29.0818ZM71.4098 29.1418C70.3844 29.1418 69.728 29.1164 69.4407 29.0655C68.8807 28.9709 68.4535 28.7 68.1589 28.2527C67.9735 27.9727 67.8571 27.6527 67.8098 27.2927C67.7953 27.1618 67.788 27.0255 67.788 26.8836C67.788 26.7273 67.7971 26.5655 67.8153 26.3982C67.8407 26.1727 67.908 25.8509 68.0171 25.4327C68.0498 25.2982 68.0862 25.1618 68.1262 25.0236C68.1407 24.9764 68.1535 24.9327 68.1644 24.8927C68.1716 24.86 68.1771 24.84 68.1807 24.8327L69.8989 25.3182C69.7135 25.98 69.5898 26.5218 69.528 26.9436C69.5244 26.9727 69.5225 27.0018 69.5225 27.0309C69.5225 27.1 69.5353 27.16 69.5607 27.2109C69.6044 27.3055 69.6825 27.3527 69.7953 27.3527H75.7298C76.0571 27.3527 76.288 27.3091 76.4225 27.2218C76.5607 27.1382 76.6298 27.0055 76.6298 26.8236C76.6298 26.7691 76.6225 26.7091 76.608 26.6436C76.5716 26.4582 76.5353 26.2691 76.4989 26.0764C76.4844 26.0036 76.4698 25.9255 76.4553 25.8418L76.4335 25.7382L76.4171 25.6345C76.3916 25.4964 76.3698 25.3764 76.3516 25.2745L78.0644 24.7945C78.1553 25.2455 78.2571 25.7709 78.3698 26.3709C78.3989 26.5455 78.4135 26.7127 78.4135 26.8727C78.4135 27.3673 78.2716 27.8109 77.988 28.2036C77.5335 28.8291 76.7935 29.1418 75.768 29.1418H71.4098ZM72.0044 30.9036L73.1389 29.7582L74.2953 30.9145L73.1498 32.06L72.0044 30.9036ZM82.3911 27.2982V26.7364C82.3911 26.4018 82.3202 26.1364 82.1784 25.94C82.0366 25.7473 81.8439 25.6509 81.6002 25.6509C81.353 25.6509 81.1566 25.7473 81.0111 25.94C80.8766 26.1182 80.8093 26.3491 80.8093 26.6327C80.8093 26.6655 80.8111 26.7 80.8148 26.7364C80.8257 26.9291 80.9111 27.0745 81.0711 27.1727C81.2093 27.2564 81.3857 27.2982 81.6002 27.2982H82.3911ZM81.6002 23.8618C82.4039 23.8618 83.0439 24.1545 83.5202 24.74C83.9602 25.2745 84.1802 25.94 84.1802 26.7364V28.7382C84.1802 30.0036 83.6584 30.9073 82.6148 31.4491C82.2111 31.66 81.7311 31.8127 81.1748 31.9073C80.742 31.9836 80.2693 32.0218 79.7566 32.0218V30.2327C80.6657 30.2327 81.3493 30.1055 81.8075 29.8509C82.1784 29.6473 82.3639 29.3909 82.3639 29.0818H81.6002C80.9493 29.0818 80.3984 28.9073 79.9475 28.5582C79.3984 28.1364 79.1239 27.5291 79.1239 26.7364C79.1239 25.9836 79.3057 25.3455 79.6693 24.8218C80.113 24.1818 80.7566 23.8618 81.6002 23.8618Z" fill="#616161"/>
  <path fill-rule="evenodd" clip-rule="evenodd" d="M111.311 9.33331C111.461 10.7007 110.911 12.0714 110.097 13.0594C109.282 14.0451 107.945 14.8128 106.636 14.7106C106.458 13.3705 107.119 11.9749 107.875 11.1004C108.716 10.1147 110.138 9.38107 111.311 9.33331ZM115.538 17.2988C115.299 17.4468 113.006 18.8662 113.035 21.7312C113.065 25.1847 116 26.3832 116.16 26.4485C116.163 26.4499 116.166 26.4511 116.166 26.4511C116.165 26.4554 116.162 26.4637 116.158 26.4759C116.089 26.6984 115.617 28.2104 114.55 29.7694C113.577 31.1912 112.569 32.6063 110.979 32.6358C110.215 32.6502 109.705 32.4292 109.174 32.1995C108.618 31.9591 108.041 31.7091 107.127 31.7091C106.17 31.7091 105.565 31.9668 104.983 32.215C104.478 32.43 103.991 32.6378 103.305 32.6652C101.771 32.722 100.602 31.13 99.622 29.7125C97.6165 26.8167 96.0857 21.527 98.1434 17.9564C99.1632 16.1826 100.989 15.0605 102.97 15.0311C103.824 15.0155 104.651 15.3439 105.375 15.6312C105.929 15.8507 106.421 16.0462 106.82 16.0462C107.178 16.0462 107.658 15.857 108.218 15.6363C109.098 15.289 110.176 14.864 111.287 14.9765C112.048 15.0082 114.183 15.283 115.554 17.2887C115.551 17.2908 115.545 17.2942 115.538 17.2988Z" fill="#616161"/>
  <rect x="0.5" y="1.5" width="134" height="39" rx="7.5" stroke="#E0E0E0"/>
</svg>
